<svg width="384" height="170" viewBox="0 0 384 170" fill="none" xmlns="http://www.w3.org/2000/svg">
<rect x="18" y="23.1991" width="70" height="113" fill="#C4C4C4"/>
<path d="M60 3.1991H128L88 23.1991H18L60 3.1991Z" fill="#C4C4C4"/>
<path d="M88 23.1991L128 3.1991V109.199L88 136.199V23.1991Z" fill="#C4C4C4"/>
<path d="M88 136.199L129 107.199" stroke="#EF1919" stroke-width="2"/>
<path d="M18 23.1991L60 3.1991" stroke="#EF1919" stroke-width="2"/>
<path d="M18.9037 23.1991L18.9037 136.208M86.9038 23.1991L86.9038 136.208M127.904 4.1991L127.904 107.199" stroke="#F58A0B" stroke-width="2"/>
<path d="M28.834 145.594H26.0918V153.199H24.9727V145.594H22.2363V144.668H28.834V145.594ZM32.5488 147.832C32.3848 147.805 32.207 147.791 32.0156 147.791C31.3047 147.791 30.8223 148.094 30.5684 148.699V153.199H29.4844V146.859H30.5391L30.5566 147.592C30.9121 147.025 31.416 146.742 32.0684 146.742C32.2793 146.742 32.4395 146.769 32.5488 146.824V147.832ZM36.0645 153.316C35.2051 153.316 34.5059 153.035 33.9668 152.473C33.4277 151.906 33.1582 151.15 33.1582 150.205V150.006C33.1582 149.377 33.2773 148.816 33.5156 148.324C33.7578 147.828 34.0938 147.441 34.5234 147.164C34.957 146.883 35.4258 146.742 35.9297 146.742C36.7539 146.742 37.3945 147.014 37.8516 147.557C38.3086 148.099 38.5371 148.877 38.5371 149.889V150.34H34.2422C34.2578 150.965 34.4395 151.471 34.7871 151.857C35.1387 152.24 35.584 152.432 36.123 152.432C36.5059 152.432 36.8301 152.353 37.0957 152.197C37.3613 152.041 37.5938 151.834 37.793 151.576L38.4551 152.092C37.9238 152.908 37.127 153.316 36.0645 153.316ZM35.9297 147.633C35.4922 147.633 35.125 147.793 34.8281 148.113C34.5312 148.43 34.3477 148.875 34.2773 149.449H37.4531V149.367C37.4219 148.816 37.2734 148.391 37.0078 148.09C36.7422 147.785 36.3828 147.633 35.9297 147.633ZM43.7109 153.199C43.6484 153.074 43.5977 152.851 43.5586 152.531C43.0547 153.055 42.4531 153.316 41.7539 153.316C41.1289 153.316 40.6152 153.141 40.2129 152.789C39.8145 152.433 39.6152 151.984 39.6152 151.441C39.6152 150.781 39.8652 150.269 40.3652 149.906C40.8691 149.539 41.5762 149.355 42.4863 149.355H43.541V148.857C43.541 148.478 43.4277 148.178 43.2012 147.955C42.9746 147.728 42.6406 147.615 42.1992 147.615C41.8125 147.615 41.4883 147.713 41.2266 147.908C40.9648 148.103 40.834 148.34 40.834 148.617H39.7441C39.7441 148.301 39.8555 147.996 40.0781 147.703C40.3047 147.406 40.6094 147.172 40.9922 147C41.3789 146.828 41.8027 146.742 42.2637 146.742C42.9941 146.742 43.5664 146.926 43.9805 147.293C44.3945 147.656 44.6094 148.158 44.625 148.799V151.717C44.625 152.299 44.6992 152.762 44.8477 153.105V153.199H43.7109ZM41.9121 152.373C42.252 152.373 42.5742 152.285 42.8789 152.109C43.1836 151.933 43.4043 151.705 43.541 151.424V150.123H42.6914C41.3633 150.123 40.6992 150.512 40.6992 151.289C40.6992 151.629 40.8125 151.894 41.0391 152.086C41.2656 152.277 41.5566 152.373 41.9121 152.373ZM47.7949 145.324V146.859H48.9785V147.697H47.7949V151.629C47.7949 151.883 47.8477 152.074 47.9531 152.203C48.0586 152.328 48.2383 152.391 48.4922 152.391C48.6172 152.391 48.7891 152.367 49.0078 152.32V153.199C48.7227 153.277 48.4453 153.316 48.1758 153.316C47.6914 153.316 47.3262 153.17 47.0801 152.877C46.834 152.584 46.7109 152.168 46.7109 151.629V147.697H45.5566V146.859H46.7109V145.324H47.7949ZM51.2695 146.859L51.2988 147.562C51.7637 147.016 52.3906 146.742 53.1797 146.742C54.0664 146.742 54.6699 147.082 54.9902 147.762C55.2012 147.457 55.4746 147.211 55.8105 147.023C56.1504 146.836 56.5508 146.742 57.0117 146.742C58.4023 146.742 59.1094 147.478 59.1328 148.951V153.199H58.0488V149.016C58.0488 148.562 57.9453 148.224 57.7383 148.002C57.5312 147.775 57.1836 147.662 56.6953 147.662C56.293 147.662 55.959 147.783 55.6934 148.025C55.4277 148.264 55.2734 148.586 55.2305 148.992V153.199H54.1406V149.045C54.1406 148.123 53.6895 147.662 52.7871 147.662C52.0762 147.662 51.5898 147.965 51.3281 148.57V153.199H50.2441V146.859H51.2695ZM63.4043 153.316C62.5449 153.316 61.8457 153.035 61.3066 152.473C60.7676 151.906 60.498 151.15 60.498 150.205V150.006C60.498 149.377 60.6172 148.816 60.8555 148.324C61.0977 147.828 61.4336 147.441 61.8633 147.164C62.2969 146.883 62.7656 146.742 63.2695 146.742C64.0938 146.742 64.7344 147.014 65.1914 147.557C65.6484 148.099 65.877 148.877 65.877 149.889V150.34H61.582C61.5977 150.965 61.7793 151.471 62.127 151.857C62.4785 152.24 62.9238 152.432 63.4629 152.432C63.8457 152.432 64.1699 152.353 64.4355 152.197C64.7012 152.041 64.9336 151.834 65.1328 151.576L65.7949 152.092C65.2637 152.908 64.4668 153.316 63.4043 153.316ZM63.2695 147.633C62.832 147.633 62.4648 147.793 62.168 148.113C61.8711 148.43 61.6875 148.875 61.6172 149.449H64.793V149.367C64.7617 148.816 64.6133 148.391 64.3477 148.09C64.082 147.785 63.7227 147.633 63.2695 147.633ZM68.1621 146.859L68.1973 147.656C68.6816 147.047 69.3145 146.742 70.0957 146.742C71.4355 146.742 72.1113 147.498 72.123 149.01V153.199H71.0391V149.004C71.0352 148.547 70.9297 148.209 70.7227 147.99C70.5195 147.771 70.2012 147.662 69.7676 147.662C69.416 147.662 69.1074 147.756 68.8418 147.943C68.5762 148.131 68.3691 148.377 68.2207 148.682V153.199H67.1367V146.859H68.1621ZM75.2285 145.324V146.859H76.4121V147.697H75.2285V151.629C75.2285 151.883 75.2812 152.074 75.3867 152.203C75.4922 152.328 75.6719 152.391 75.9258 152.391C76.0508 152.391 76.2227 152.367 76.4414 152.32V153.199C76.1562 153.277 75.8789 153.316 75.6094 153.316C75.125 153.316 74.7598 153.17 74.5137 152.877C74.2676 152.584 74.1445 152.168 74.1445 151.629V147.697H72.9902V146.859H74.1445V145.324H75.2285ZM81.375 151.517C81.375 151.224 81.2637 150.998 81.041 150.838C80.8223 150.674 80.4375 150.533 79.8867 150.416C79.3398 150.299 78.9043 150.158 78.5801 149.994C78.2598 149.83 78.0215 149.635 77.8652 149.408C77.7129 149.182 77.6367 148.912 77.6367 148.599C77.6367 148.08 77.8555 147.641 78.293 147.281C78.7344 146.922 79.2969 146.742 79.9805 146.742C80.6992 146.742 81.2812 146.928 81.7266 147.299C82.1758 147.67 82.4004 148.144 82.4004 148.723H81.3105C81.3105 148.426 81.1836 148.17 80.9297 147.955C80.6797 147.74 80.3633 147.633 79.9805 147.633C79.5859 147.633 79.2773 147.719 79.0547 147.891C78.832 148.062 78.7207 148.287 78.7207 148.564C78.7207 148.826 78.8242 149.023 79.0312 149.156C79.2383 149.289 79.6113 149.416 80.1504 149.537C80.6934 149.658 81.1328 149.803 81.4688 149.971C81.8047 150.139 82.0527 150.342 82.2129 150.58C82.377 150.814 82.459 151.101 82.459 151.441C82.459 152.008 82.2324 152.463 81.7793 152.807C81.3262 153.146 80.7383 153.316 80.0156 153.316C79.5078 153.316 79.0586 153.226 78.668 153.047C78.2773 152.867 77.9707 152.617 77.748 152.297C77.5293 151.973 77.4199 151.623 77.4199 151.248H78.5039C78.5234 151.611 78.668 151.9 78.9375 152.115C79.2109 152.326 79.5703 152.432 80.0156 152.432C80.4258 152.432 80.7539 152.349 81 152.185C81.25 152.017 81.375 151.795 81.375 151.517ZM45.7734 163.736C45.7734 162.853 45.8906 162.006 46.125 161.193C46.3633 160.381 46.7168 159.642 47.1855 158.978C47.6543 158.314 48.1406 157.846 48.6445 157.572L48.8672 158.287C48.2969 158.724 47.8281 159.392 47.4609 160.291C47.0977 161.189 46.8984 162.195 46.8633 163.308L46.8574 163.807C46.8574 165.314 47.1328 166.623 47.6836 167.732C48.0156 168.396 48.4102 168.916 48.8672 169.291L48.6445 169.953C48.125 169.664 47.6289 169.18 47.1562 168.5C46.2344 167.172 45.7734 165.584 45.7734 163.736ZM55.3125 159.277L51.7793 167.199H50.6426L54.1641 159.558H49.5469V158.668H55.3125V159.277ZM59.1562 163.795C59.1562 164.666 59.041 165.502 58.8105 166.303C58.584 167.099 58.2344 167.836 57.7617 168.512C57.293 169.187 56.8008 169.668 56.2852 169.953L56.0566 169.291C56.6582 168.83 57.1406 168.115 57.5039 167.146C57.8711 166.174 58.0586 165.096 58.0664 163.912V163.724C58.0664 162.904 57.9805 162.142 57.8086 161.439C57.6367 160.732 57.3965 160.099 57.0879 159.541C56.7832 158.982 56.4395 158.547 56.0566 158.234L56.2852 157.572C56.8008 157.857 57.291 158.334 57.7559 159.002C58.2246 159.67 58.5742 160.406 58.8047 161.211C59.0391 162.016 59.1562 162.877 59.1562 163.795Z" fill="black"/>
<path d="M6.66016 114.084H10V115.209H1.46875L1.46875 112.062C1.46875 111.129 1.70703 110.398 2.18359 109.871C2.66016 109.34 3.29102 109.074 4.07617 109.074C4.9043 109.074 5.54297 109.334 5.99219 109.853C6.4375 110.369 6.66016 111.109 6.66016 112.074L6.66016 114.084ZM5.74023 114.084L5.74023 112.062C5.74023 111.461 5.59961 111 5.31836 110.68C5.0332 110.359 4.62305 110.199 4.08789 110.199C3.58008 110.199 3.17383 110.359 2.86914 110.68C2.56445 111 2.40625 111.439 2.39453 111.998V114.084H5.74023ZM4.63281 104.744C4.60547 104.908 4.5918 105.086 4.5918 105.277C4.5918 105.988 4.89453 106.471 5.5 106.724H10V107.808H3.66016V106.754L4.39258 106.736C3.82617 106.381 3.54297 105.877 3.54297 105.224C3.54297 105.014 3.57031 104.853 3.625 104.744H4.63281ZM6.77148 104.146C6.15039 104.146 5.5918 104.025 5.0957 103.783C4.59961 103.537 4.2168 103.197 3.94727 102.764C3.67773 102.326 3.54297 101.828 3.54297 101.269C3.54297 100.406 3.8418 99.7089 4.43945 99.1776C5.03711 98.6425 5.83203 98.3749 6.82422 98.3749H6.90039C7.51758 98.3749 8.07227 98.494 8.56445 98.7323C9.05273 98.9667 9.43359 99.3046 9.70703 99.746C9.98047 100.183 10.1172 100.687 10.1172 101.258C10.1172 102.117 9.81836 102.814 9.2207 103.349C8.62305 103.881 7.83203 104.146 6.84766 104.146H6.77148ZM6.90039 103.057C7.60352 103.057 8.16797 102.894 8.59375 102.57C9.01953 102.242 9.23242 101.805 9.23242 101.258C9.23242 100.707 9.01758 100.269 8.58789 99.9452C8.1543 99.621 7.54883 99.4589 6.77148 99.4589C6.07617 99.4589 5.51367 99.6249 5.08398 99.9569C4.65039 100.285 4.43359 100.723 4.43359 101.269C4.43359 101.805 4.64648 102.236 5.07227 102.564C5.49805 102.892 6.10742 103.057 6.90039 103.057ZM2.125 95.5448H3.66016V94.3612H4.49805V95.5448H8.42969C8.68359 95.5448 8.875 95.4921 9.00391 95.3866C9.12891 95.2811 9.19141 95.1014 9.19141 94.8475C9.19141 94.7225 9.16797 94.5507 9.12109 94.3319H10C10.0781 94.6171 10.1172 94.8944 10.1172 95.1639C10.1172 95.6483 9.9707 96.0135 9.67773 96.2596C9.38477 96.5057 8.96875 96.6288 8.42969 96.6288H4.49805V97.7831H3.66016V96.6288H2.125V95.5448ZM10.1172 90.4589C10.1172 91.3182 9.83594 92.0175 9.27344 92.5565C8.70703 93.0956 7.95117 93.3651 7.00586 93.3651H6.80664C6.17773 93.3651 5.61719 93.246 5.125 93.0077C4.62891 92.7655 4.24219 92.4296 3.96484 91.9999C3.68359 91.5663 3.54297 91.0975 3.54297 90.5936C3.54297 89.7694 3.81445 89.1288 4.35742 88.6718C4.90039 88.2147 5.67773 87.9862 6.68945 87.9862H7.14062V92.2811C7.76562 92.2655 8.27148 92.0839 8.6582 91.7362C9.04102 91.3846 9.23242 90.9393 9.23242 90.4003C9.23242 90.0175 9.1543 89.6932 8.99805 89.4276C8.8418 89.162 8.63477 88.9296 8.37695 88.7303L8.89258 88.0682C9.70898 88.5995 10.1172 89.3964 10.1172 90.4589ZM4.43359 90.5936C4.43359 91.0311 4.59375 91.3983 4.91406 91.6952C5.23047 91.9921 5.67578 92.1757 6.25 92.246V89.0702H6.16797C5.61719 89.1014 5.19141 89.2499 4.89062 89.5155C4.58594 89.7811 4.43359 90.1405 4.43359 90.5936ZM10 85.5487V86.6327H3.66016V85.5487H10ZM1.97852 86.7206C1.80273 86.7206 1.6543 86.6678 1.5332 86.5624C1.41211 86.453 1.35156 86.2928 1.35156 86.0819C1.35156 85.871 1.41211 85.7108 1.5332 85.6014C1.6543 85.4921 1.80273 85.4374 1.97852 85.4374C2.1543 85.4374 2.30078 85.4921 2.41797 85.6014C2.53516 85.7108 2.59375 85.871 2.59375 86.0819C2.59375 86.2928 2.53516 86.453 2.41797 86.5624C2.30078 86.6678 2.1543 86.7206 1.97852 86.7206ZM3.66016 82.7831L4.45703 82.7479C3.84766 82.2635 3.54297 81.6307 3.54297 80.8495C3.54297 79.5096 4.29883 78.8339 5.81055 78.8221H10V79.9061H5.80469C5.34766 79.91 5.00977 80.0155 4.79102 80.2225C4.57227 80.4257 4.46289 80.744 4.46289 81.1776C4.46289 81.5292 4.55664 81.8378 4.74414 82.1034C4.93164 82.369 5.17773 82.576 5.48242 82.7245H10V83.8085H3.66016V82.7831ZM8.31836 73.496C8.02539 73.496 7.79883 73.6073 7.63867 73.83C7.47461 74.0487 7.33398 74.4335 7.2168 74.9843C7.09961 75.5311 6.95898 75.9667 6.79492 76.2909C6.63086 76.6112 6.43555 76.8495 6.20898 77.0057C5.98242 77.1581 5.71289 77.2343 5.40039 77.2343C4.88086 77.2343 4.44141 77.0155 4.08203 76.578C3.72266 76.1366 3.54297 75.5741 3.54297 74.8905C3.54297 74.1718 3.72852 73.5897 4.09961 73.1444C4.4707 72.6952 4.94531 72.4706 5.52344 72.4706V73.5604C5.22656 73.5604 4.9707 73.6874 4.75586 73.9413C4.54102 74.1913 4.43359 74.5077 4.43359 74.8905C4.43359 75.285 4.51953 75.5936 4.69141 75.8163C4.86328 76.0389 5.08789 76.1503 5.36523 76.1503C5.62695 76.1503 5.82422 76.0468 5.95703 75.8397C6.08984 75.6327 6.2168 75.2596 6.33789 74.7206C6.45898 74.1776 6.60352 73.7382 6.77148 73.4022C6.93945 73.0663 7.14258 72.8182 7.38086 72.6581C7.61523 72.494 7.90234 72.412 8.24219 72.412C8.80859 72.412 9.26367 72.6385 9.60742 73.0917C9.94727 73.5448 10.1172 74.1327 10.1172 74.8553C10.1172 75.3632 10.0273 75.8124 9.84766 76.203C9.66797 76.5936 9.41797 76.9003 9.09766 77.1229C8.77344 77.3417 8.42383 77.451 8.04883 77.451V76.3671C8.41211 76.3475 8.70117 76.203 8.91602 75.9335C9.12695 75.66 9.23242 75.3007 9.23242 74.8553C9.23242 74.4452 9.15039 74.1171 8.98633 73.871C8.81836 73.621 8.5957 73.496 8.31836 73.496ZM6.53711 68.0643C5.6543 68.0643 4.80664 67.9471 3.99414 67.7128C3.18164 67.4745 2.44336 67.121 1.7793 66.6522C1.11523 66.1835 0.646484 65.6971 0.373047 65.1932L1.08789 64.9706C1.52539 65.5409 2.19336 66.0096 3.0918 66.3768C3.99023 66.7401 4.99609 66.9393 6.10937 66.9745L6.60742 66.9803C8.11523 66.9803 9.42383 66.705 10.5332 66.1542C11.1973 65.8221 11.7168 65.4276 12.0918 64.9706L12.7539 65.1932C12.4648 65.7128 11.9805 66.2089 11.3008 66.6815C9.97266 67.6034 8.38477 68.0643 6.53711 68.0643ZM10 58.4432V64.0331H9.2207L5.93945 61.08C5.44336 60.6425 5.04102 60.3417 4.73242 60.1776C4.41992 60.0096 4.09766 59.9257 3.76562 59.9257C3.32031 59.9257 2.95508 60.0604 2.66992 60.33C2.38477 60.5995 2.24219 60.9589 2.24219 61.4081C2.24219 61.9471 2.39648 62.3671 2.70508 62.6678C3.00977 62.9647 3.43555 63.1132 3.98242 63.1132V64.1971C3.19727 64.1971 2.5625 63.9452 2.07812 63.4413C1.59375 62.9335 1.35156 62.2557 1.35156 61.4081C1.35156 60.6151 1.56055 59.9882 1.97852 59.5272C2.39258 59.0663 2.94531 58.8358 3.63672 58.8358C4.47656 58.8358 5.47656 59.371 6.63672 60.4413L9.11523 62.7264V58.4432H10ZM6.25 53.1405C6.51953 53.3671 6.73633 53.6385 6.90039 53.955C7.06445 54.2675 7.14648 54.6112 7.14648 54.9862C7.14648 55.4784 7.02539 55.9081 6.7832 56.2753C6.54102 56.6385 6.20117 56.9198 5.76367 57.119C5.32227 57.3182 4.83594 57.4178 4.30469 57.4178C3.73437 57.4178 3.2207 57.3104 2.76367 57.0956C2.30664 56.8768 1.95703 56.5682 1.71484 56.1698C1.47266 55.7714 1.35156 55.3065 1.35156 54.7753C1.35156 53.9315 1.66797 53.2675 2.30078 52.7831C2.92969 52.2948 3.78906 52.0507 4.87891 52.0507H5.19531C6.85547 52.0507 8.06836 52.3788 8.83398 53.035C9.5957 53.6913 9.98633 54.6815 10.0059 56.0057V56.2167H9.0918V55.9882C9.07617 55.0936 8.84375 54.4061 8.39453 53.9257C7.94141 53.4452 7.22656 53.1835 6.25 53.1405ZM6.25 54.8104C6.25 54.4471 6.13867 54.1132 5.91602 53.8085C5.69336 53.4999 5.41797 53.2753 5.08984 53.1346H4.65625C3.94531 53.1346 3.36719 53.2889 2.92187 53.5975C2.47656 53.9061 2.25391 54.2968 2.25391 54.7694C2.25391 55.246 2.4375 55.6288 2.80469 55.9178C3.16797 56.2069 3.64844 56.3514 4.24609 56.3514C4.82812 56.3514 5.30859 56.2128 5.6875 55.9354C6.0625 55.6542 6.25 55.2792 6.25 54.8104ZM5.72266 50.0585L1.46875 49.6249L1.46875 45.2538H2.4707L2.4707 48.705L4.79687 48.9628C4.55078 48.5448 4.42773 48.0702 4.42773 47.5389C4.42773 46.7616 4.68555 46.1444 5.20117 45.6874C5.71289 45.2303 6.40625 45.0018 7.28125 45.0018C8.16016 45.0018 8.85352 45.2401 9.36133 45.7167C9.86523 46.1893 10.1172 46.8514 10.1172 47.703C10.1172 48.4569 9.9082 49.0721 9.49023 49.5487C9.07227 50.0253 8.49414 50.2968 7.75586 50.3632V49.3378C8.24414 49.2714 8.61328 49.0975 8.86328 48.8163C9.10937 48.535 9.23242 48.1639 9.23242 47.703C9.23242 47.1991 9.06055 46.8046 8.7168 46.5194C8.37305 46.2303 7.89844 46.0858 7.29297 46.0858C6.72266 46.0858 6.26562 46.2421 5.92187 46.5546C5.57422 46.8632 5.40039 47.2753 5.40039 47.7909C5.40039 48.2635 5.50391 48.6346 5.71094 48.9042L5.94531 49.1913L5.72266 50.0585ZM6.5957 41.205C7.4668 41.205 8.30273 41.3202 9.10352 41.5507C9.90039 41.7772 10.6367 42.1268 11.3125 42.5995C11.9883 43.0682 12.4687 43.5604 12.7539 44.076L12.0918 44.3046C11.6309 43.703 10.916 43.2206 9.94727 42.8573C8.97461 42.4901 7.89648 42.3026 6.71289 42.2948H6.52539C5.70508 42.2948 4.94336 42.3807 4.24023 42.5526C3.5332 42.7245 2.90039 42.9647 2.3418 43.2733C1.7832 43.578 1.34766 43.9218 1.03516 44.3046L0.373047 44.076C0.658203 43.5604 1.13477 43.0702 1.80273 42.6053C2.4707 42.1366 3.20703 41.787 4.01172 41.5565C4.81641 41.3221 5.67773 41.205 6.5957 41.205Z" fill="black"/>
<path d="M59.0182 4.19927L125 4.19927" stroke="#0999EB" stroke-width="2"/>
<path d="M101.391 138.235L99.2005 139.886L103.778 145.96L102.884 146.633L98.3067 140.559L96.1214 142.206L95.5642 141.466L100.833 137.496L101.391 138.235ZM107.783 142.941L106.918 143.593L103.102 138.53L103.968 137.878L107.783 142.941ZM102.02 137.24C101.914 137.1 101.867 136.949 101.878 136.789C101.893 136.627 101.984 136.482 102.153 136.355C102.321 136.228 102.485 136.18 102.646 136.211C102.806 136.242 102.939 136.327 103.045 136.468C103.15 136.608 103.195 136.758 103.178 136.918C103.161 137.077 103.069 137.22 102.9 137.347C102.732 137.474 102.569 137.524 102.411 137.496C102.256 137.466 102.126 137.38 102.02 137.24ZM106.172 136.217L106.618 136.761C106.661 136.044 106.997 135.449 107.627 134.974C108.335 134.44 109.022 134.348 109.686 134.698C109.672 134.328 109.742 133.967 109.897 133.615C110.056 133.261 110.319 132.945 110.687 132.668C111.798 131.831 112.806 131.993 113.711 133.155L116.267 136.548L115.401 137.2L112.884 133.859C112.611 133.497 112.325 133.29 112.026 133.236C111.724 133.18 111.378 133.299 110.988 133.593C110.667 133.835 110.473 134.133 110.407 134.486C110.338 134.836 110.409 135.186 110.619 135.537L113.151 138.896L112.28 139.552L109.78 136.235C109.225 135.498 108.588 135.402 107.867 135.945C107.299 136.373 107.093 136.907 107.248 137.548L110.034 141.245L109.168 141.897L105.353 136.834L106.172 136.217ZM119.749 134.071C119.063 134.588 118.335 134.784 117.566 134.659C116.795 134.532 116.125 134.09 115.556 133.335L115.436 133.176C115.057 132.674 114.815 132.154 114.709 131.618C114.604 131.076 114.64 130.565 114.816 130.085C114.993 129.599 115.283 129.205 115.685 128.902C116.343 128.406 117.018 128.237 117.71 128.395C118.402 128.554 119.052 129.037 119.661 129.845L119.932 130.206L116.502 132.79C116.891 133.28 117.341 133.575 117.851 133.674C118.362 133.769 118.833 133.653 119.263 133.329C119.569 133.099 119.781 132.841 119.899 132.557C120.017 132.272 120.078 131.967 120.082 131.641L120.921 131.654C120.988 132.626 120.598 133.431 119.749 134.071ZM116.221 129.613C115.872 129.876 115.675 130.225 115.63 130.66C115.584 131.091 115.705 131.557 115.994 132.058L118.531 130.147L118.481 130.081C118.125 129.66 117.75 129.409 117.357 129.329C116.962 129.246 116.583 129.34 116.221 129.613ZM125.071 126.033C125.652 126.803 125.943 127.557 125.946 128.294C125.948 129.03 125.648 129.625 125.046 130.079C124.432 130.542 123.801 130.712 123.155 130.587L124.992 133.025L124.126 133.678L118.844 126.668L119.635 126.072L120.1 126.602C120.123 125.899 120.449 125.312 121.076 124.839C121.684 124.381 122.337 124.248 123.035 124.441C123.737 124.632 124.395 125.136 125.011 125.953L125.071 126.033ZM124.131 126.587C123.701 126.016 123.24 125.657 122.747 125.509C122.255 125.362 121.796 125.448 121.372 125.768C120.848 126.163 120.63 126.692 120.718 127.354L122.541 129.773C123.148 130.04 123.718 129.972 124.252 129.57C124.667 129.257 124.872 128.846 124.869 128.335C124.866 127.818 124.62 127.236 124.131 126.587ZM125.869 125.27C125.495 124.774 125.255 124.255 125.15 123.713C125.048 123.169 125.089 122.659 125.273 122.183C125.46 121.704 125.777 121.297 126.223 120.96C126.913 120.441 127.649 120.26 128.433 120.418C129.22 120.573 129.912 121.047 130.51 121.839L130.555 121.9C130.927 122.393 131.166 122.907 131.271 123.444C131.378 123.975 131.337 124.482 131.15 124.966C130.965 125.448 130.645 125.861 130.189 126.204C129.503 126.721 128.766 126.902 127.979 126.747C127.195 126.589 126.507 126.117 125.914 125.331L125.869 125.27ZM126.817 124.717C127.24 125.279 127.709 125.632 128.224 125.777C128.742 125.92 129.22 125.826 129.657 125.497C130.096 125.166 130.317 124.731 130.317 124.193C130.315 123.651 130.08 123.07 129.612 122.449C129.194 121.894 128.723 121.545 128.199 121.401C127.676 121.252 127.196 121.343 126.759 121.672C126.332 121.994 126.115 122.424 126.109 122.961C126.104 123.499 126.339 124.084 126.817 124.717ZM134.447 122.848L133.581 123.501L129.766 118.438L130.632 117.785L134.447 122.848ZM128.684 117.147C128.578 117.007 128.531 116.857 128.542 116.697C128.557 116.534 128.648 116.389 128.816 116.262C128.985 116.135 129.149 116.087 129.31 116.118C129.47 116.149 129.603 116.235 129.709 116.375C129.814 116.516 129.859 116.665 129.842 116.825C129.825 116.984 129.733 117.127 129.564 117.254C129.396 117.381 129.232 117.431 129.075 117.403C128.92 117.373 128.79 117.288 128.684 117.147ZM132.84 116.121L133.348 116.736C133.368 115.958 133.69 115.334 134.314 114.864C135.384 114.057 136.379 114.254 137.298 115.454L139.819 118.8L138.953 119.453L136.429 116.102C136.15 115.739 135.863 115.533 135.566 115.483C135.272 115.431 134.952 115.535 134.606 115.796C134.325 116.007 134.135 116.268 134.036 116.577C133.936 116.887 133.919 117.208 133.984 117.541L136.703 121.149L135.837 121.801L132.021 116.738L132.84 116.121ZM137.56 110.642L138.484 111.868L139.429 111.156L139.933 111.825L138.988 112.537L141.354 115.677C141.507 115.88 141.664 116.001 141.826 116.041C141.986 116.077 142.167 116.019 142.37 115.866C142.469 115.791 142.593 115.669 142.739 115.5L143.268 116.201C143.087 116.435 142.889 116.634 142.674 116.796C142.287 117.087 141.907 117.19 141.534 117.104C141.162 117.018 140.813 116.76 140.489 116.33L138.122 113.19L137.201 113.884L136.696 113.215L137.618 112.521L136.694 111.294L137.56 110.642ZM146.196 111.889C146.02 111.655 145.794 111.541 145.52 111.547C145.247 111.548 144.855 111.667 144.345 111.905C143.837 112.141 143.405 112.291 143.047 112.355C142.693 112.416 142.385 112.404 142.124 112.317C141.866 112.228 141.643 112.058 141.454 111.809C141.142 111.394 141.052 110.911 141.185 110.361C141.321 109.808 141.662 109.326 142.208 108.915C142.782 108.482 143.359 108.28 143.938 108.308C144.52 108.335 144.985 108.578 145.333 109.04L144.463 109.696C144.284 109.459 144.029 109.331 143.696 109.312C143.367 109.291 143.05 109.396 142.744 109.626C142.429 109.863 142.235 110.118 142.16 110.389C142.086 110.66 142.132 110.907 142.299 111.128C142.456 111.337 142.658 111.433 142.903 111.414C143.148 111.395 143.523 111.272 144.026 111.045C144.533 110.815 144.971 110.666 145.34 110.598C145.709 110.529 146.03 110.542 146.301 110.636C146.573 110.725 146.811 110.905 147.016 111.176C147.357 111.628 147.45 112.128 147.295 112.675C147.137 113.22 146.77 113.709 146.193 114.144C145.787 114.45 145.375 114.648 144.954 114.74C144.534 114.831 144.139 114.816 143.768 114.694C143.399 114.567 143.101 114.354 142.875 114.054L143.741 113.402C143.975 113.68 144.264 113.824 144.609 113.834C144.954 113.837 145.305 113.705 145.66 113.437C145.988 113.191 146.201 112.928 146.299 112.648C146.397 112.364 146.363 112.111 146.196 111.889ZM125.477 142.802C124.946 142.097 124.529 141.349 124.227 140.559C123.929 139.767 123.767 138.965 123.742 138.152C123.716 137.34 123.823 136.673 124.06 136.151L124.668 136.588C124.476 137.281 124.504 138.096 124.751 139.035C125.002 139.971 125.448 140.894 126.09 141.804L126.385 142.205C127.293 143.41 128.3 144.289 129.408 144.844C130.072 145.174 130.7 145.352 131.291 145.376L131.511 146.039C130.923 146.121 130.235 146.032 129.448 145.774C127.913 145.268 126.589 144.277 125.477 142.802ZM129.04 133.763L129.594 134.498L129.435 134.618C128.77 135.138 128.384 135.742 128.276 136.43C128.169 137.117 128.348 137.836 128.814 138.585C128.863 137.903 129.198 137.328 129.818 136.86C130.411 136.413 131.041 136.266 131.709 136.418C132.379 136.568 132.964 136.974 133.462 137.635C133.991 138.337 134.223 139.044 134.156 139.754C134.093 140.462 133.74 141.058 133.097 141.542C132.445 142.034 131.728 142.182 130.947 141.989C130.163 141.792 129.473 141.299 128.879 140.51L128.628 140.178C127.683 138.924 127.228 137.765 127.263 136.702C127.299 135.633 127.84 134.692 128.886 133.879L129.04 133.763ZM130.216 137.69C129.92 137.913 129.714 138.208 129.598 138.574C129.483 138.939 129.478 139.293 129.583 139.634L129.823 139.952C130.246 140.514 130.713 140.871 131.225 141.024C131.736 141.177 132.18 141.111 132.558 140.826C132.948 140.532 133.145 140.158 133.151 139.705C133.159 139.248 132.988 138.788 132.638 138.323C132.285 137.855 131.887 137.563 131.443 137.448C130.999 137.327 130.591 137.408 130.216 137.69ZM136.2 134.794C136.725 135.49 137.136 136.227 137.434 137.005C137.732 137.778 137.896 138.577 137.925 139.401C137.958 140.223 137.854 140.902 137.614 141.441L137.033 141.049C137.236 140.319 137.191 139.458 136.898 138.466C136.606 137.468 136.107 136.494 135.401 135.544L135.288 135.394C134.794 134.739 134.267 134.182 133.707 133.724C133.144 133.263 132.571 132.902 131.988 132.642C131.409 132.379 130.872 132.238 130.378 132.219L130.163 131.553C130.746 131.47 131.424 131.556 132.197 131.809C132.974 132.061 133.696 132.438 134.365 132.942C135.036 133.444 135.648 134.061 136.2 134.794Z" fill="black"/>
<path d="M20.0182 23.1993L86 23.1993" stroke="#0999EB" stroke-width="2"/>
<path d="M19 136.199H88" stroke="#0999EB" stroke-width="2"/>
<path d="M86 23.1991L128 3.1991" stroke="#EF1919" stroke-width="2"/>
<rect x="254" y="21.1991" width="70" height="113" fill="#C4C4C4"/>
<path d="M296 1.1991H364L324 21.1991H254L296 1.1991Z" fill="#C4C4C4"/>
<path d="M324 21.1991L364 1.1991V107.199L324 134.199V21.1991Z" fill="#C4C4C4"/>
<path d="M324 134.199L365 105.199" stroke="#EF1919" stroke-width="2"/>
<path d="M254 21.1991L296 1.1991" stroke="#EF1919" stroke-width="2"/>
<path d="M254.904 21.1991L254.904 134.208M322.904 21.1991L322.904 134.208M363.904 2.1991L363.904 105.199" stroke="#2F782D" stroke-width="2"/>
<path d="M264.834 143.594H262.092V151.199H260.973V143.594H258.236V142.668H264.834V143.594ZM268.549 145.832C268.385 145.805 268.207 145.791 268.016 145.791C267.305 145.791 266.822 146.094 266.568 146.699V151.199H265.484V144.859H266.539L266.557 145.592C266.912 145.025 267.416 144.742 268.068 144.742C268.279 144.742 268.439 144.769 268.549 144.824V145.832ZM272.064 151.316C271.205 151.316 270.506 151.035 269.967 150.473C269.428 149.906 269.158 149.15 269.158 148.205V148.006C269.158 147.377 269.277 146.816 269.516 146.324C269.758 145.828 270.094 145.441 270.523 145.164C270.957 144.883 271.426 144.742 271.93 144.742C272.754 144.742 273.395 145.014 273.852 145.557C274.309 146.099 274.537 146.877 274.537 147.889V148.34H270.242C270.258 148.965 270.439 149.471 270.787 149.857C271.139 150.24 271.584 150.432 272.123 150.432C272.506 150.432 272.83 150.353 273.096 150.197C273.361 150.041 273.594 149.834 273.793 149.576L274.455 150.092C273.924 150.908 273.127 151.316 272.064 151.316ZM271.93 145.633C271.492 145.633 271.125 145.793 270.828 146.113C270.531 146.43 270.348 146.875 270.277 147.449H273.453V147.367C273.422 146.816 273.273 146.391 273.008 146.09C272.742 145.785 272.383 145.633 271.93 145.633ZM279.711 151.199C279.648 151.074 279.598 150.851 279.559 150.531C279.055 151.055 278.453 151.316 277.754 151.316C277.129 151.316 276.615 151.141 276.213 150.789C275.814 150.433 275.615 149.984 275.615 149.441C275.615 148.781 275.865 148.269 276.365 147.906C276.869 147.539 277.576 147.355 278.486 147.355H279.541V146.857C279.541 146.478 279.428 146.178 279.201 145.955C278.975 145.728 278.641 145.615 278.199 145.615C277.812 145.615 277.488 145.713 277.227 145.908C276.965 146.103 276.834 146.34 276.834 146.617H275.744C275.744 146.301 275.855 145.996 276.078 145.703C276.305 145.406 276.609 145.172 276.992 145C277.379 144.828 277.803 144.742 278.264 144.742C278.994 144.742 279.566 144.926 279.98 145.293C280.395 145.656 280.609 146.158 280.625 146.799V149.717C280.625 150.299 280.699 150.762 280.848 151.105V151.199H279.711ZM277.912 150.373C278.252 150.373 278.574 150.285 278.879 150.109C279.184 149.933 279.404 149.705 279.541 149.424V148.123H278.691C277.363 148.123 276.699 148.512 276.699 149.289C276.699 149.629 276.812 149.894 277.039 150.086C277.266 150.277 277.557 150.373 277.912 150.373ZM283.795 143.324V144.859H284.979V145.697H283.795V149.629C283.795 149.883 283.848 150.074 283.953 150.203C284.059 150.328 284.238 150.391 284.492 150.391C284.617 150.391 284.789 150.367 285.008 150.32V151.199C284.723 151.277 284.445 151.316 284.176 151.316C283.691 151.316 283.326 151.17 283.08 150.877C282.834 150.584 282.711 150.168 282.711 149.629V145.697H281.557V144.859H282.711V143.324H283.795ZM287.27 144.859L287.299 145.562C287.764 145.016 288.391 144.742 289.18 144.742C290.066 144.742 290.67 145.082 290.99 145.762C291.201 145.457 291.475 145.211 291.811 145.023C292.15 144.836 292.551 144.742 293.012 144.742C294.402 144.742 295.109 145.478 295.133 146.951V151.199H294.049V147.016C294.049 146.562 293.945 146.224 293.738 146.002C293.531 145.775 293.184 145.662 292.695 145.662C292.293 145.662 291.959 145.783 291.693 146.025C291.428 146.264 291.273 146.586 291.23 146.992V151.199H290.141V147.045C290.141 146.123 289.689 145.662 288.787 145.662C288.076 145.662 287.59 145.965 287.328 146.57V151.199H286.244V144.859H287.27ZM299.404 151.316C298.545 151.316 297.846 151.035 297.307 150.473C296.768 149.906 296.498 149.15 296.498 148.205V148.006C296.498 147.377 296.617 146.816 296.855 146.324C297.098 145.828 297.434 145.441 297.863 145.164C298.297 144.883 298.766 144.742 299.27 144.742C300.094 144.742 300.734 145.014 301.191 145.557C301.648 146.099 301.877 146.877 301.877 147.889V148.34H297.582C297.598 148.965 297.779 149.471 298.127 149.857C298.479 150.24 298.924 150.432 299.463 150.432C299.846 150.432 300.17 150.353 300.436 150.197C300.701 150.041 300.934 149.834 301.133 149.576L301.795 150.092C301.264 150.908 300.467 151.316 299.404 151.316ZM299.27 145.633C298.832 145.633 298.465 145.793 298.168 146.113C297.871 146.43 297.688 146.875 297.617 147.449H300.793V147.367C300.762 146.816 300.613 146.391 300.348 146.09C300.082 145.785 299.723 145.633 299.27 145.633ZM304.162 144.859L304.197 145.656C304.682 145.047 305.314 144.742 306.096 144.742C307.436 144.742 308.111 145.498 308.123 147.01V151.199H307.039V147.004C307.035 146.547 306.93 146.209 306.723 145.99C306.52 145.771 306.201 145.662 305.768 145.662C305.416 145.662 305.107 145.756 304.842 145.943C304.576 146.131 304.369 146.377 304.221 146.682V151.199H303.137V144.859H304.162ZM311.229 143.324V144.859H312.412V145.697H311.229V149.629C311.229 149.883 311.281 150.074 311.387 150.203C311.492 150.328 311.672 150.391 311.926 150.391C312.051 150.391 312.223 150.367 312.441 150.32V151.199C312.156 151.277 311.879 151.316 311.609 151.316C311.125 151.316 310.76 151.17 310.514 150.877C310.268 150.584 310.145 150.168 310.145 149.629V145.697H308.99V144.859H310.145V143.324H311.229ZM317.375 149.517C317.375 149.224 317.264 148.998 317.041 148.838C316.822 148.674 316.438 148.533 315.887 148.416C315.34 148.299 314.904 148.158 314.58 147.994C314.26 147.83 314.021 147.635 313.865 147.408C313.713 147.182 313.637 146.912 313.637 146.599C313.637 146.08 313.855 145.641 314.293 145.281C314.734 144.922 315.297 144.742 315.98 144.742C316.699 144.742 317.281 144.928 317.727 145.299C318.176 145.67 318.4 146.144 318.4 146.723H317.311C317.311 146.426 317.184 146.17 316.93 145.955C316.68 145.74 316.363 145.633 315.98 145.633C315.586 145.633 315.277 145.719 315.055 145.891C314.832 146.062 314.721 146.287 314.721 146.564C314.721 146.826 314.824 147.023 315.031 147.156C315.238 147.289 315.611 147.416 316.15 147.537C316.693 147.658 317.133 147.803 317.469 147.971C317.805 148.139 318.053 148.342 318.213 148.58C318.377 148.814 318.459 149.101 318.459 149.441C318.459 150.008 318.232 150.463 317.779 150.807C317.326 151.146 316.738 151.316 316.016 151.316C315.508 151.316 315.059 151.226 314.668 151.047C314.277 150.867 313.971 150.617 313.748 150.297C313.529 149.973 313.42 149.623 313.42 149.248H314.504C314.523 149.611 314.668 149.9 314.938 150.115C315.211 150.326 315.57 150.432 316.016 150.432C316.426 150.432 316.754 150.349 317 150.185C317.25 150.017 317.375 149.795 317.375 149.517ZM281.773 161.736C281.773 160.853 281.891 160.006 282.125 159.193C282.363 158.381 282.717 157.642 283.186 156.978C283.654 156.314 284.141 155.846 284.645 155.572L284.867 156.287C284.297 156.724 283.828 157.392 283.461 158.291C283.098 159.189 282.898 160.195 282.863 161.308L282.857 161.807C282.857 163.314 283.133 164.623 283.684 165.732C284.016 166.396 284.41 166.916 284.867 167.291L284.645 167.953C284.125 167.664 283.629 167.18 283.156 166.5C282.234 165.172 281.773 163.584 281.773 161.736ZM291.312 157.277L287.779 165.199H286.643L290.164 157.558H285.547V156.668H291.312V157.277ZM295.156 161.795C295.156 162.666 295.041 163.502 294.811 164.303C294.584 165.099 294.234 165.836 293.762 166.512C293.293 167.187 292.801 167.668 292.285 167.953L292.057 167.291C292.658 166.83 293.141 166.115 293.504 165.146C293.871 164.174 294.059 163.096 294.066 161.912V161.724C294.066 160.904 293.98 160.142 293.809 159.439C293.637 158.732 293.396 158.099 293.088 157.541C292.783 156.982 292.439 156.547 292.057 156.234L292.285 155.572C292.801 155.857 293.291 156.334 293.756 157.002C294.225 157.67 294.574 158.406 294.805 159.211C295.039 160.016 295.156 160.877 295.156 161.795Z" fill="black"/>
<path d="M231.881 119.254C232.295 119.543 232.605 119.947 232.812 120.467C233.016 120.982 233.117 121.584 233.117 122.271C233.117 122.967 232.955 123.584 232.631 124.123C232.303 124.662 231.838 125.08 231.236 125.377C230.635 125.67 229.938 125.82 229.145 125.828H228.4C227.115 125.828 226.119 125.529 225.412 124.932C224.705 124.33 224.352 123.486 224.352 122.4C224.352 121.51 224.58 120.793 225.037 120.25C225.49 119.707 226.135 119.375 226.971 119.254V120.379C225.842 120.59 225.277 121.262 225.277 122.395C225.277 123.148 225.543 123.721 226.074 124.111C226.602 124.498 227.367 124.693 228.371 124.697H229.068C230.025 124.697 230.787 124.479 231.354 124.041C231.916 123.604 232.197 123.012 232.197 122.266C232.197 121.844 232.15 121.475 232.057 121.158C231.963 120.842 231.805 120.58 231.582 120.373H229.666V122.348H228.752V119.254H231.881ZM233.117 114.912C233.117 115.771 232.836 116.471 232.273 117.01C231.707 117.549 230.951 117.818 230.006 117.818H229.807C229.178 117.818 228.617 117.699 228.125 117.461C227.629 117.219 227.242 116.883 226.965 116.453C226.684 116.02 226.543 115.551 226.543 115.047C226.543 114.223 226.814 113.582 227.357 113.125C227.9 112.668 228.678 112.439 229.689 112.439H230.141V116.734C230.766 116.719 231.271 116.537 231.658 116.189C232.041 115.838 232.232 115.393 232.232 114.854C232.232 114.471 232.154 114.146 231.998 113.881C231.842 113.615 231.635 113.383 231.377 113.184L231.893 112.521C232.709 113.053 233.117 113.85 233.117 114.912ZM227.434 115.047C227.434 115.484 227.594 115.852 227.914 116.148C228.23 116.445 228.676 116.629 229.25 116.699V113.523H229.168C228.617 113.555 228.191 113.703 227.891 113.969C227.586 114.234 227.434 114.594 227.434 115.047ZM226.66 110.154L227.457 110.119C226.848 109.635 226.543 109.002 226.543 108.221C226.543 106.881 227.299 106.205 228.811 106.193H233V107.277H228.805C228.348 107.281 228.01 107.387 227.791 107.594C227.572 107.797 227.463 108.115 227.463 108.549C227.463 108.9 227.557 109.209 227.744 109.475C227.932 109.74 228.178 109.947 228.482 110.096H233V111.18H226.66V110.154ZM233.117 101.928C233.117 102.787 232.836 103.486 232.273 104.025C231.707 104.564 230.951 104.834 230.006 104.834H229.807C229.178 104.834 228.617 104.715 228.125 104.477C227.629 104.234 227.242 103.898 226.965 103.469C226.684 103.035 226.543 102.566 226.543 102.062C226.543 101.238 226.814 100.598 227.357 100.141C227.9 99.6836 228.678 99.4551 229.689 99.4551H230.141V103.75C230.766 103.734 231.271 103.553 231.658 103.205C232.041 102.854 232.232 102.408 232.232 101.869C232.232 101.486 232.154 101.162 231.998 100.896C231.842 100.631 231.635 100.398 231.377 100.199L231.893 99.5371C232.709 100.068 233.117 100.865 233.117 101.928ZM227.434 102.062C227.434 102.5 227.594 102.867 227.914 103.164C228.23 103.461 228.676 103.645 229.25 103.715V100.539H229.168C228.617 100.57 228.191 100.719 227.891 100.984C227.586 101.25 227.434 101.609 227.434 102.062ZM229.057 90.2266V93.9238H232.08V89.6289H233V95.0488H224.469V89.6875H225.395V93.9238H228.137V90.2266H229.057ZM228.975 86.2715L226.66 84.8652V83.5996L229.795 85.6738L233 83.5352V84.7891L230.627 86.2539L233 87.7188V88.9785L229.795 86.8398L226.66 88.9141V87.6602L228.975 86.2715ZM229.9 77.0898C230.865 77.0898 231.643 77.3105 232.232 77.752C232.822 78.1934 233.117 78.791 233.117 79.5449C233.117 80.3145 232.873 80.9199 232.385 81.3613H235.438V82.4453H226.66V81.4551L227.363 81.4023C226.816 80.9609 226.543 80.3477 226.543 79.5625C226.543 78.8008 226.83 78.1992 227.404 77.7578C227.979 77.3125 228.777 77.0898 229.801 77.0898H229.9ZM229.777 78.1738C229.062 78.1738 228.498 78.3262 228.084 78.6309C227.67 78.9355 227.463 79.3535 227.463 79.8848C227.463 80.541 227.754 81.0332 228.336 81.3613H231.365C231.943 81.0371 232.232 80.541 232.232 79.873C232.232 79.3535 232.027 78.9414 231.617 78.6367C231.203 78.3281 230.59 78.1738 229.777 78.1738ZM227.633 72.6426C227.605 72.8066 227.592 72.9844 227.592 73.1758C227.592 73.8867 227.895 74.3691 228.5 74.623H233V75.707H226.66V74.6523L227.393 74.6348C226.826 74.2793 226.543 73.7754 226.543 73.123C226.543 72.9121 226.57 72.752 226.625 72.6426H227.633ZM233.117 69.127C233.117 69.9863 232.836 70.6855 232.273 71.2246C231.707 71.7637 230.951 72.0332 230.006 72.0332H229.807C229.178 72.0332 228.617 71.9141 228.125 71.6758C227.629 71.4336 227.242 71.0977 226.965 70.668C226.684 70.2344 226.543 69.7656 226.543 69.2617C226.543 68.4375 226.814 67.7969 227.357 67.3398C227.9 66.8828 228.678 66.6543 229.689 66.6543H230.141V70.9492C230.766 70.9336 231.271 70.752 231.658 70.4043C232.041 70.0527 232.232 69.6074 232.232 69.0684C232.232 68.6855 232.154 68.3613 231.998 68.0957C231.842 67.8301 231.635 67.5977 231.377 67.3984L231.893 66.7363C232.709 67.2676 233.117 68.0645 233.117 69.127ZM227.434 69.2617C227.434 69.6992 227.594 70.0664 227.914 70.3633C228.23 70.6602 228.676 70.8438 229.25 70.9141V67.7383H229.168C228.617 67.7695 228.191 67.918 227.891 68.1836C227.586 68.4492 227.434 68.8086 227.434 69.2617ZM231.318 61.7031C231.025 61.7031 230.799 61.8145 230.639 62.0371C230.475 62.2559 230.334 62.6406 230.217 63.1914C230.1 63.7383 229.959 64.1738 229.795 64.498C229.631 64.8184 229.436 65.0566 229.209 65.2129C228.982 65.3652 228.713 65.4414 228.4 65.4414C227.881 65.4414 227.441 65.2227 227.082 64.7852C226.723 64.3438 226.543 63.7812 226.543 63.0977C226.543 62.3789 226.729 61.7969 227.1 61.3516C227.471 60.9023 227.945 60.6777 228.523 60.6777V61.7676C228.227 61.7676 227.971 61.8945 227.756 62.1484C227.541 62.3984 227.434 62.7148 227.434 63.0977C227.434 63.4922 227.52 63.8008 227.691 64.0234C227.863 64.2461 228.088 64.3574 228.365 64.3574C228.627 64.3574 228.824 64.2539 228.957 64.0469C229.09 63.8398 229.217 63.4668 229.338 62.9277C229.459 62.3848 229.604 61.9453 229.771 61.6094C229.939 61.2734 230.143 61.0254 230.381 60.8652C230.615 60.7012 230.902 60.6191 231.242 60.6191C231.809 60.6191 232.264 60.8457 232.607 61.2988C232.947 61.752 233.117 62.3398 233.117 63.0625C233.117 63.5703 233.027 64.0195 232.848 64.4102C232.668 64.8008 232.418 65.1074 232.098 65.3301C231.773 65.5488 231.424 65.6582 231.049 65.6582V64.5742C231.412 64.5547 231.701 64.4102 231.916 64.1406C232.127 63.8672 232.232 63.5078 232.232 63.0625C232.232 62.6523 232.15 62.3242 231.986 62.0781C231.818 61.8281 231.596 61.7031 231.318 61.7031ZM231.318 55.5156C231.025 55.5156 230.799 55.627 230.639 55.8496C230.475 56.0684 230.334 56.4531 230.217 57.0039C230.1 57.5508 229.959 57.9863 229.795 58.3105C229.631 58.6309 229.436 58.8691 229.209 59.0254C228.982 59.1777 228.713 59.2539 228.4 59.2539C227.881 59.2539 227.441 59.0352 227.082 58.5977C226.723 58.1562 226.543 57.5938 226.543 56.9102C226.543 56.1914 226.729 55.6094 227.1 55.1641C227.471 54.7148 227.945 54.4902 228.523 54.4902V55.5801C228.227 55.5801 227.971 55.707 227.756 55.9609C227.541 56.2109 227.434 56.5273 227.434 56.9102C227.434 57.3047 227.52 57.6133 227.691 57.8359C227.863 58.0586 228.088 58.1699 228.365 58.1699C228.627 58.1699 228.824 58.0664 228.957 57.8594C229.09 57.6523 229.217 57.2793 229.338 56.7402C229.459 56.1973 229.604 55.7578 229.771 55.4219C229.939 55.0859 230.143 54.8379 230.381 54.6777C230.615 54.5137 230.902 54.4316 231.242 54.4316C231.809 54.4316 232.264 54.6582 232.607 55.1113C232.947 55.5645 233.117 56.1523 233.117 56.875C233.117 57.3828 233.027 57.832 232.848 58.2227C232.668 58.6133 232.418 58.9199 232.098 59.1426C231.773 59.3613 231.424 59.4707 231.049 59.4707V58.3867C231.412 58.3672 231.701 58.2227 231.916 57.9531C232.127 57.6797 232.232 57.3203 232.232 56.875C232.232 56.4648 232.15 56.1367 231.986 55.8906C231.818 55.6406 231.596 55.5156 231.318 55.5156ZM233 51.8418V52.9258H226.66V51.8418H233ZM224.979 53.0137C224.803 53.0137 224.654 52.9609 224.533 52.8555C224.412 52.7461 224.352 52.5859 224.352 52.375C224.352 52.1641 224.412 52.0039 224.533 51.8945C224.654 51.7852 224.803 51.7305 224.979 51.7305C225.154 51.7305 225.301 51.7852 225.418 51.8945C225.535 52.0039 225.594 52.1641 225.594 52.375C225.594 52.5859 225.535 52.7461 225.418 52.8555C225.301 52.9609 225.154 53.0137 224.979 53.0137ZM229.771 50.3887C229.15 50.3887 228.592 50.2676 228.096 50.0254C227.6 49.7793 227.217 49.4395 226.947 49.0059C226.678 48.5684 226.543 48.0703 226.543 47.5117C226.543 46.6484 226.842 45.9512 227.439 45.4199C228.037 44.8848 228.832 44.6172 229.824 44.6172H229.9C230.518 44.6172 231.072 44.7363 231.564 44.9746C232.053 45.209 232.434 45.5469 232.707 45.9883C232.98 46.4258 233.117 46.9297 233.117 47.5C233.117 48.3594 232.818 49.0566 232.221 49.5918C231.623 50.123 230.832 50.3887 229.848 50.3887H229.771ZM229.9 49.2988C230.604 49.2988 231.168 49.1367 231.594 48.8125C232.02 48.4844 232.232 48.0469 232.232 47.5C232.232 46.9492 232.018 46.5117 231.588 46.1875C231.154 45.8633 230.549 45.7012 229.771 45.7012C229.076 45.7012 228.514 45.8672 228.084 46.1992C227.65 46.5273 227.434 46.9648 227.434 47.5117C227.434 48.0469 227.646 48.4785 228.072 48.8066C228.498 49.1348 229.107 49.2988 229.9 49.2988ZM226.66 42.2324L227.457 42.1973C226.848 41.7129 226.543 41.0801 226.543 40.2988C226.543 38.959 227.299 38.2832 228.811 38.2715H233V39.3555H228.805C228.348 39.3594 228.01 39.4648 227.791 39.6719C227.572 39.875 227.463 40.1934 227.463 40.627C227.463 40.9785 227.557 41.2871 227.744 41.5527C227.932 41.8184 228.178 42.0254 228.482 42.1738H233V43.2578H226.66V42.2324ZM243.537 102.203C242.654 102.203 241.807 102.086 240.994 101.852C240.182 101.613 239.443 101.26 238.779 100.791C238.115 100.322 237.646 99.8359 237.373 99.332L238.088 99.1094C238.525 99.6797 239.193 100.148 240.092 100.516C240.99 100.879 241.996 101.078 243.109 101.113L243.607 101.119C245.115 101.119 246.424 100.844 247.533 100.293C248.197 99.9609 248.717 99.5664 249.092 99.1094L249.754 99.332C249.465 99.8516 248.98 100.348 248.301 100.82C246.973 101.742 245.385 102.203 243.537 102.203ZM242.723 97.6738L238.469 97.2402V92.8691H239.471V96.3203L241.797 96.5781C241.551 96.1602 241.428 95.6855 241.428 95.1543C241.428 94.377 241.686 93.7598 242.201 93.3027C242.713 92.8457 243.406 92.6172 244.281 92.6172C245.16 92.6172 245.854 92.8555 246.361 93.332C246.865 93.8047 247.117 94.4668 247.117 95.3184C247.117 96.0723 246.908 96.6875 246.49 97.1641C246.072 97.6406 245.494 97.9121 244.756 97.9785V96.9531C245.244 96.8867 245.613 96.7129 245.863 96.4316C246.109 96.1504 246.232 95.7793 246.232 95.3184C246.232 94.8145 246.061 94.4199 245.717 94.1348C245.373 93.8457 244.898 93.7012 244.293 93.7012C243.723 93.7012 243.266 93.8574 242.922 94.1699C242.574 94.4785 242.4 94.8906 242.4 95.4062C242.4 95.8789 242.504 96.25 242.711 96.5195L242.945 96.8066L242.723 97.6738ZM239.078 85.9258L247 89.459V90.5957L239.359 87.0742V91.6914H238.469V85.9258H239.078ZM242.207 83.1191V82.3047C242.199 81.793 242.064 81.3906 241.803 81.0977C241.541 80.8047 241.188 80.6582 240.742 80.6582C239.742 80.6582 239.242 81.1562 239.242 82.1523C239.242 82.6211 239.377 82.9961 239.646 83.2773C239.912 83.5547 240.266 83.6934 240.707 83.6934V84.7773C240.031 84.7773 239.471 84.5312 239.025 84.0391C238.576 83.543 238.352 82.9141 238.352 82.1523C238.352 81.3477 238.564 80.7168 238.99 80.2598C239.416 79.8027 240.008 79.5742 240.766 79.5742C241.137 79.5742 241.496 79.6953 241.844 79.9375C242.191 80.1758 242.451 80.502 242.623 80.916C242.771 80.4473 243.018 80.0859 243.361 79.832C243.705 79.5742 244.125 79.4453 244.621 79.4453C245.387 79.4453 245.994 79.6953 246.443 80.1953C246.893 80.6953 247.117 81.3457 247.117 82.1465C247.117 82.9473 246.9 83.5996 246.467 84.1035C246.033 84.6035 245.461 84.8535 244.75 84.8535V83.7637C245.199 83.7637 245.559 83.6172 245.828 83.3242C246.098 83.0312 246.232 82.6387 246.232 82.1465C246.232 81.623 246.096 81.2227 245.822 80.9453C245.549 80.668 245.156 80.5293 244.645 80.5293C244.148 80.5293 243.768 80.6816 243.502 80.9863C243.236 81.291 243.1 81.7305 243.092 82.3047V83.1191H242.207ZM238.463 73.7031H239.383V73.9023C239.398 74.7461 239.648 75.418 240.133 75.918C240.617 76.418 241.299 76.707 242.178 76.7852C241.662 76.3359 241.404 75.7227 241.404 74.9453C241.404 74.2031 241.666 73.6113 242.189 73.1699C242.713 72.7246 243.389 72.502 244.217 72.502C245.096 72.502 245.799 72.7422 246.326 73.2227C246.854 73.6992 247.117 74.3398 247.117 75.1445C247.117 75.9609 246.805 76.623 246.18 77.1309C245.551 77.6387 244.742 77.8926 243.754 77.8926H243.338C241.768 77.8926 240.568 77.5586 239.74 76.8906C238.908 76.2188 238.482 75.2207 238.463 73.8965V73.7031ZM242.307 75.127C242.307 75.498 242.418 75.8398 242.641 76.1523C242.863 76.4648 243.143 76.6816 243.479 76.8027H243.877C244.58 76.8027 245.146 76.6445 245.576 76.3281C246.006 76.0117 246.221 75.6172 246.221 75.1445C246.221 74.6562 246.041 74.2734 245.682 73.9961C245.322 73.7148 244.852 73.5742 244.27 73.5742C243.684 73.5742 243.211 73.7168 242.852 74.002C242.488 74.2832 242.307 74.6582 242.307 75.127ZM239.078 65.7109L247 69.2441V70.3809L239.359 66.8594V71.4766H238.469V65.7109H239.078ZM243.596 61.8672C244.467 61.8672 245.303 61.9824 246.104 62.2129C246.9 62.4395 247.637 62.7891 248.312 63.2617C248.988 63.7305 249.469 64.2227 249.754 64.7383L249.092 64.9668C248.631 64.3652 247.916 63.8828 246.947 63.5195C245.975 63.1523 244.896 62.9648 243.713 62.957H243.525C242.705 62.957 241.943 63.043 241.24 63.2148C240.533 63.3867 239.9 63.627 239.342 63.9355C238.783 64.2402 238.348 64.584 238.035 64.9668L237.373 64.7383C237.658 64.2227 238.135 63.7324 238.803 63.2676C239.471 62.7988 240.207 62.4492 241.012 62.2188C241.816 61.9844 242.678 61.8672 243.596 61.8672Z" fill="black"/>
<path d="M295.018 2.19927L361 2.19927" stroke="#0999EB" stroke-width="2"/>
<path d="M337.391 135.235L335.201 136.886L339.778 142.96L338.884 143.633L334.307 137.559L332.121 139.206L331.564 138.466L336.833 134.496L337.391 135.235ZM343.783 139.941L342.918 140.593L339.102 135.53L339.968 134.878L343.783 139.941ZM338.02 134.24C337.914 134.1 337.867 133.949 337.878 133.789C337.893 133.627 337.984 133.482 338.153 133.355C338.321 133.228 338.485 133.18 338.646 133.211C338.806 133.242 338.939 133.327 339.045 133.468C339.15 133.608 339.195 133.758 339.178 133.918C339.161 134.077 339.069 134.22 338.9 134.347C338.732 134.474 338.569 134.524 338.411 134.496C338.256 134.466 338.126 134.38 338.02 134.24ZM342.172 133.217L342.618 133.761C342.661 133.044 342.997 132.449 343.627 131.974C344.335 131.44 345.022 131.348 345.686 131.698C345.672 131.328 345.742 130.967 345.897 130.615C346.056 130.261 346.319 129.945 346.687 129.668C347.798 128.831 348.806 128.993 349.711 130.155L352.267 133.548L351.401 134.2L348.884 130.859C348.611 130.497 348.325 130.29 348.026 130.236C347.724 130.18 347.378 130.299 346.988 130.593C346.667 130.835 346.473 131.133 346.407 131.486C346.338 131.836 346.409 132.186 346.619 132.537L349.151 135.896L348.28 136.552L345.78 133.235C345.225 132.498 344.588 132.402 343.867 132.945C343.299 133.373 343.093 133.907 343.248 134.548L346.034 138.245L345.168 138.897L341.353 133.834L342.172 133.217ZM355.749 131.071C355.063 131.588 354.335 131.784 353.566 131.659C352.795 131.532 352.125 131.09 351.556 130.335L351.436 130.176C351.057 129.674 350.815 129.154 350.709 128.618C350.604 128.076 350.64 127.565 350.816 127.085C350.993 126.599 351.283 126.205 351.685 125.902C352.343 125.406 353.018 125.237 353.71 125.395C354.402 125.554 355.052 126.037 355.661 126.845L355.932 127.206L352.502 129.79C352.891 130.28 353.341 130.575 353.851 130.674C354.362 130.769 354.833 130.653 355.263 130.329C355.569 130.099 355.781 129.841 355.899 129.557C356.017 129.272 356.078 128.967 356.082 128.641L356.921 128.654C356.988 129.626 356.598 130.431 355.749 131.071ZM352.221 126.613C351.872 126.876 351.675 127.225 351.63 127.66C351.584 128.091 351.705 128.557 351.994 129.058L354.531 127.147L354.481 127.081C354.125 126.66 353.75 126.409 353.357 126.329C352.962 126.246 352.583 126.34 352.221 126.613ZM361.071 123.033C361.652 123.803 361.943 124.557 361.946 125.294C361.948 126.03 361.648 126.625 361.046 127.079C360.432 127.542 359.801 127.712 359.155 127.587L360.992 130.025L360.126 130.678L354.844 123.668L355.635 123.072L356.1 123.602C356.123 122.899 356.449 122.312 357.076 121.839C357.684 121.381 358.337 121.248 359.035 121.441C359.737 121.632 360.395 122.136 361.011 122.953L361.071 123.033ZM360.131 123.587C359.701 123.016 359.24 122.657 358.747 122.509C358.255 122.362 357.796 122.448 357.372 122.768C356.848 123.163 356.63 123.692 356.718 124.354L358.541 126.773C359.148 127.04 359.718 126.972 360.252 126.57C360.667 126.257 360.872 125.846 360.869 125.335C360.866 124.818 360.62 124.236 360.131 123.587ZM361.869 122.27C361.495 121.774 361.255 121.255 361.15 120.713C361.048 120.169 361.089 119.659 361.273 119.183C361.46 118.704 361.777 118.297 362.223 117.96C362.913 117.441 363.649 117.26 364.433 117.418C365.22 117.573 365.912 118.047 366.51 118.839L366.555 118.9C366.927 119.393 367.166 119.907 367.271 120.444C367.378 120.975 367.337 121.482 367.15 121.966C366.965 122.448 366.645 122.861 366.189 123.204C365.503 123.721 364.766 123.902 363.979 123.747C363.195 123.589 362.507 123.117 361.914 122.331L361.869 122.27ZM362.817 121.717C363.24 122.279 363.709 122.632 364.224 122.777C364.742 122.92 365.22 122.826 365.657 122.497C366.096 122.166 366.317 121.731 366.317 121.193C366.315 120.651 366.08 120.07 365.612 119.449C365.194 118.894 364.723 118.545 364.199 118.401C363.676 118.252 363.196 118.343 362.759 118.672C362.332 118.994 362.115 119.424 362.109 119.961C362.104 120.499 362.339 121.084 362.817 121.717ZM370.447 119.848L369.581 120.501L365.766 115.438L366.632 114.785L370.447 119.848ZM364.684 114.147C364.578 114.007 364.531 113.857 364.542 113.697C364.557 113.534 364.648 113.389 364.816 113.262C364.985 113.135 365.149 113.087 365.31 113.118C365.47 113.149 365.603 113.235 365.709 113.375C365.814 113.516 365.859 113.665 365.842 113.825C365.825 113.984 365.733 114.127 365.564 114.254C365.396 114.381 365.232 114.431 365.075 114.403C364.92 114.373 364.79 114.288 364.684 114.147ZM368.84 113.121L369.348 113.736C369.368 112.958 369.69 112.334 370.314 111.864C371.384 111.057 372.379 111.254 373.298 112.454L375.819 115.8L374.953 116.453L372.429 113.102C372.15 112.739 371.863 112.533 371.566 112.483C371.272 112.431 370.952 112.535 370.606 112.796C370.325 113.007 370.135 113.268 370.036 113.577C369.936 113.887 369.919 114.208 369.984 114.541L372.703 118.149L371.837 118.801L368.021 113.738L368.84 113.121ZM373.56 107.642L374.484 108.868L375.429 108.156L375.933 108.825L374.988 109.537L377.354 112.677C377.507 112.88 377.664 113.001 377.826 113.041C377.986 113.077 378.167 113.019 378.37 112.866C378.469 112.791 378.593 112.669 378.739 112.5L379.268 113.201C379.087 113.435 378.889 113.634 378.674 113.796C378.287 114.087 377.907 114.19 377.534 114.104C377.162 114.018 376.813 113.76 376.489 113.33L374.122 110.19L373.201 110.884L372.696 110.215L373.618 109.521L372.694 108.294L373.56 107.642ZM382.196 108.889C382.02 108.655 381.794 108.541 381.52 108.547C381.247 108.548 380.855 108.667 380.345 108.905C379.837 109.141 379.405 109.291 379.047 109.355C378.693 109.416 378.385 109.404 378.124 109.317C377.866 109.228 377.643 109.058 377.454 108.809C377.142 108.394 377.052 107.911 377.185 107.361C377.321 106.808 377.662 106.326 378.208 105.915C378.782 105.482 379.359 105.28 379.938 105.308C380.52 105.335 380.985 105.578 381.333 106.04L380.463 106.696C380.284 106.459 380.029 106.331 379.696 106.312C379.367 106.291 379.05 106.396 378.744 106.626C378.429 106.863 378.235 107.118 378.16 107.389C378.086 107.66 378.132 107.907 378.299 108.128C378.456 108.337 378.658 108.433 378.903 108.414C379.148 108.395 379.523 108.272 380.026 108.045C380.533 107.815 380.971 107.666 381.34 107.598C381.709 107.529 382.03 107.542 382.301 107.636C382.573 107.725 382.811 107.905 383.016 108.176C383.357 108.628 383.45 109.128 383.295 109.675C383.137 110.22 382.77 110.709 382.193 111.144C381.787 111.45 381.375 111.648 380.954 111.74C380.534 111.831 380.139 111.816 379.768 111.694C379.399 111.567 379.101 111.354 378.875 111.054L379.741 110.402C379.975 110.68 380.264 110.824 380.609 110.834C380.954 110.837 381.305 110.705 381.66 110.437C381.988 110.191 382.201 109.928 382.299 109.648C382.397 109.364 382.363 109.111 382.196 108.889ZM361.477 139.802C360.946 139.097 360.529 138.349 360.227 137.559C359.929 136.767 359.767 135.965 359.742 135.152C359.716 134.34 359.823 133.673 360.06 133.151L360.668 133.588C360.476 134.281 360.504 135.096 360.751 136.035C361.002 136.971 361.448 137.894 362.09 138.804L362.385 139.205C363.293 140.41 364.3 141.289 365.408 141.844C366.072 142.174 366.7 142.352 367.291 142.376L367.511 143.039C366.923 143.121 366.235 143.032 365.448 142.774C363.913 142.268 362.589 141.277 361.477 139.802ZM365.04 130.763L365.594 131.498L365.435 131.618C364.77 132.138 364.384 132.742 364.276 133.43C364.169 134.117 364.348 134.836 364.814 135.585C364.863 134.903 365.198 134.328 365.818 133.86C366.411 133.413 367.041 133.266 367.709 133.418C368.379 133.568 368.964 133.974 369.462 134.635C369.991 135.337 370.223 136.044 370.156 136.754C370.093 137.462 369.74 138.058 369.097 138.542C368.445 139.034 367.728 139.182 366.947 138.989C366.163 138.792 365.473 138.299 364.879 137.51L364.628 137.178C363.683 135.924 363.228 134.765 363.263 133.702C363.299 132.633 363.84 131.692 364.886 130.879L365.04 130.763ZM366.216 134.69C365.92 134.913 365.714 135.208 365.598 135.574C365.483 135.939 365.478 136.293 365.583 136.634L365.823 136.952C366.246 137.514 366.713 137.871 367.225 138.024C367.736 138.177 368.18 138.111 368.558 137.826C368.948 137.532 369.145 137.158 369.151 136.705C369.159 136.248 368.988 135.788 368.638 135.323C368.285 134.855 367.887 134.563 367.443 134.448C366.999 134.327 366.591 134.408 366.216 134.69ZM372.2 131.794C372.725 132.49 373.136 133.227 373.434 134.005C373.732 134.778 373.896 135.577 373.925 136.401C373.958 137.223 373.854 137.902 373.614 138.441L373.033 138.049C373.236 137.319 373.191 136.458 372.898 135.466C372.606 134.468 372.107 133.494 371.401 132.544L371.288 132.394C370.794 131.739 370.267 131.182 369.707 130.724C369.144 130.263 368.571 129.902 367.988 129.642C367.409 129.379 366.872 129.238 366.378 129.219L366.163 128.553C366.746 128.47 367.424 128.556 368.197 128.809C368.974 129.061 369.696 129.438 370.365 129.942C371.036 130.444 371.648 131.061 372.2 131.794Z" fill="black"/>
<path d="M256.018 21.1993L322 21.1993" stroke="#0999EB" stroke-width="2"/>
<path d="M255 134.199H324" stroke="#0999EB" stroke-width="2"/>
<path d="M322 21.1991L364 1.1991" stroke="#EF1919" stroke-width="2"/>
<path d="M164.287 60.685L163.916 59.7566L164.287 60.685ZM197.713 60.685L198.084 59.7566L197.713 60.685ZM216.394 68.9191C216.902 68.7016 217.137 68.1137 216.919 67.6061L213.374 59.3338C213.156 58.8261 212.568 58.591 212.061 58.8085C211.553 59.0261 211.318 59.614 211.536 60.1216L214.687 67.4748L207.334 70.6261C206.826 70.8437 206.591 71.4316 206.809 71.9392C207.026 72.4468 207.614 72.682 208.122 72.4644L216.394 68.9191ZM146.371 68.9285L164.659 61.6135L163.916 59.7566L145.629 67.0715L146.371 68.9285ZM197.341 61.6135L215.629 68.9285L216.371 67.0715L198.084 59.7566L197.341 61.6135ZM164.659 61.6135C175.149 57.4175 186.851 57.4175 197.341 61.6135L198.084 59.7566C187.117 55.3698 174.883 55.3698 163.916 59.7566L164.659 61.6135Z" fill="black"/>
<path d="M139.106 69.5528C138.859 70.0468 139.059 70.6474 139.553 70.8944L147.603 74.9193C148.097 75.1663 148.697 74.9661 148.944 74.4721C149.191 73.9782 148.991 73.3775 148.497 73.1305L141.342 69.5528L144.919 62.3974C145.166 61.9034 144.966 61.3027 144.472 61.0557C143.978 60.8087 143.377 61.009 143.13 61.5029L139.106 69.5528ZM145.684 67.0513L139.684 69.0513L140.316 70.9487L146.316 68.9487L145.684 67.0513Z" fill="black"/>
</svg>